<mxfile host="app.diagrams.net" agent="Mozilla/5.0 (Windows NT 10.0; Win64; x64) AppleWebKit/537.36 (KHTML, like Gecko) Chrome/131.0.0.0 Safari/537.36 Edg/131.0.0.0" version="24.9.3">
  <diagram name="第 1 页" id="8cEyQ7_WHihSICZvzxqW">
    <mxGraphModel dx="1006" dy="606" grid="1" gridSize="10" guides="1" tooltips="1" connect="1" arrows="1" fold="1" page="1" pageScale="1" pageWidth="827" pageHeight="1169" math="0" shadow="0">
      <root>
        <mxCell id="0" />
        <mxCell id="1" parent="0" />
        <mxCell id="aJsMiYfcZLJs7_6X1HbY-1" value="Spatio-temporal Semantic Representation for BIM" style="shape=table;childLayout=tableLayout;startSize=40;collapsible=0;recursiveResize=0;expand=0;fontSize=16;" vertex="1" parent="1">
          <mxGeometry x="340" y="210" width="710" height="540" as="geometry" />
        </mxCell>
        <mxCell id="aJsMiYfcZLJs7_6X1HbY-2" value="Space" style="shape=tableRow;horizontal=0;swimlaneHead=0;swimlaneBody=0;top=0;left=0;strokeColor=inherit;bottom=0;right=0;dropTarget=0;fontStyle=0;fillColor=none;points=[[0,0.5],[1,0.5]];portConstraint=eastwest;startSize=40;collapsible=0;recursiveResize=0;expand=0;fontSize=16;" vertex="1" parent="aJsMiYfcZLJs7_6X1HbY-1">
          <mxGeometry y="40" width="710" height="183" as="geometry" />
        </mxCell>
        <mxCell id="aJsMiYfcZLJs7_6X1HbY-3" value="Phase 1" style="swimlane;swimlaneHead=0;swimlaneBody=0;fontStyle=0;strokeColor=inherit;connectable=0;fillColor=none;startSize=40;collapsible=0;recursiveResize=0;expand=0;fontSize=16;" vertex="1" parent="aJsMiYfcZLJs7_6X1HbY-2">
          <mxGeometry x="40" width="223" height="183" as="geometry">
            <mxRectangle width="223" height="183" as="alternateBounds" />
          </mxGeometry>
        </mxCell>
        <mxCell id="aJsMiYfcZLJs7_6X1HbY-4" value="List" style="swimlane;fontStyle=0;childLayout=stackLayout;horizontal=1;startSize=26;horizontalStack=0;resizeParent=1;resizeParentMax=0;resizeLast=0;collapsible=1;marginBottom=0;align=center;fontSize=14;" vertex="1" parent="aJsMiYfcZLJs7_6X1HbY-3">
          <mxGeometry x="10" y="60" width="90" height="80" as="geometry">
            <mxRectangle x="5" y="54.5" width="60" height="30" as="alternateBounds" />
          </mxGeometry>
        </mxCell>
        <mxCell id="aJsMiYfcZLJs7_6X1HbY-5" value="Item 1 (x,y,z)" style="text;strokeColor=none;fillColor=none;spacingLeft=4;spacingRight=4;overflow=hidden;rotatable=0;points=[[0,0.5],[1,0.5]];portConstraint=eastwest;fontSize=12;whiteSpace=wrap;html=1;" vertex="1" parent="aJsMiYfcZLJs7_6X1HbY-4">
          <mxGeometry y="26" width="90" height="24" as="geometry" />
        </mxCell>
        <mxCell id="aJsMiYfcZLJs7_6X1HbY-6" value="Item 2 (a,b,c)" style="text;strokeColor=none;fillColor=none;spacingLeft=4;spacingRight=4;overflow=hidden;rotatable=0;points=[[0,0.5],[1,0.5]];portConstraint=eastwest;fontSize=12;whiteSpace=wrap;html=1;" vertex="1" parent="aJsMiYfcZLJs7_6X1HbY-4">
          <mxGeometry y="50" width="90" height="30" as="geometry" />
        </mxCell>
        <mxCell id="aJsMiYfcZLJs7_6X1HbY-7" value="Relationship" style="shape=rhombus;double=1;perimeter=rhombusPerimeter;whiteSpace=wrap;html=1;align=center;" vertex="1" parent="aJsMiYfcZLJs7_6X1HbY-3">
          <mxGeometry x="120" y="44" width="96" height="53" as="geometry" />
        </mxCell>
        <mxCell id="aJsMiYfcZLJs7_6X1HbY-8" style="edgeStyle=orthogonalEdgeStyle;rounded=0;orthogonalLoop=1;jettySize=auto;html=1;entryX=0.5;entryY=1;entryDx=0;entryDy=0;exitX=1;exitY=0.5;exitDx=0;exitDy=0;" edge="1" parent="aJsMiYfcZLJs7_6X1HbY-3" source="aJsMiYfcZLJs7_6X1HbY-5" target="aJsMiYfcZLJs7_6X1HbY-7">
          <mxGeometry relative="1" as="geometry">
            <Array as="points">
              <mxPoint x="100" y="82" />
              <mxPoint x="120" y="82" />
              <mxPoint x="120" y="110" />
              <mxPoint x="168" y="110" />
            </Array>
          </mxGeometry>
        </mxCell>
        <mxCell id="aJsMiYfcZLJs7_6X1HbY-9" value="挖掘空间关系" style="edgeLabel;html=1;align=center;verticalAlign=middle;resizable=0;points=[];" vertex="1" connectable="0" parent="aJsMiYfcZLJs7_6X1HbY-8">
          <mxGeometry x="0.2196" y="-3" relative="1" as="geometry">
            <mxPoint x="40" y="8" as="offset" />
          </mxGeometry>
        </mxCell>
        <mxCell id="aJsMiYfcZLJs7_6X1HbY-10" value="提取BIM空间结构数据" style="text;html=1;align=center;verticalAlign=middle;resizable=0;points=[];autosize=1;strokeColor=none;fillColor=none;" vertex="1" parent="aJsMiYfcZLJs7_6X1HbY-3">
          <mxGeometry x="34" y="140" width="140" height="30" as="geometry" />
        </mxCell>
        <mxCell id="aJsMiYfcZLJs7_6X1HbY-11" value="Phase 2" style="swimlane;swimlaneHead=0;swimlaneBody=0;fontStyle=0;strokeColor=inherit;connectable=0;fillColor=none;startSize=40;collapsible=0;recursiveResize=0;expand=0;fontSize=16;" vertex="1" parent="aJsMiYfcZLJs7_6X1HbY-2">
          <mxGeometry x="263" width="224" height="183" as="geometry">
            <mxRectangle width="224" height="183" as="alternateBounds" />
          </mxGeometry>
        </mxCell>
        <mxCell id="aJsMiYfcZLJs7_6X1HbY-12" style="edgeStyle=orthogonalEdgeStyle;rounded=0;orthogonalLoop=1;jettySize=auto;html=1;entryX=0.5;entryY=1;entryDx=0;entryDy=0;exitX=0.447;exitY=0.965;exitDx=0;exitDy=0;exitPerimeter=0;" edge="1" parent="aJsMiYfcZLJs7_6X1HbY-11" source="aJsMiYfcZLJs7_6X1HbY-23" target="aJsMiYfcZLJs7_6X1HbY-27">
          <mxGeometry relative="1" as="geometry" />
        </mxCell>
        <mxCell id="aJsMiYfcZLJs7_6X1HbY-13" value="添加建筑属性" style="edgeLabel;html=1;align=center;verticalAlign=middle;resizable=0;points=[];" vertex="1" connectable="0" parent="aJsMiYfcZLJs7_6X1HbY-12">
          <mxGeometry x="-0.0114" y="-1" relative="1" as="geometry">
            <mxPoint x="-3" y="9" as="offset" />
          </mxGeometry>
        </mxCell>
        <mxCell id="aJsMiYfcZLJs7_6X1HbY-14" value="Relations" style="shape=table;startSize=30;container=1;collapsible=0;childLayout=tableLayout;strokeColor=default;fontSize=16;" vertex="1" parent="aJsMiYfcZLJs7_6X1HbY-11">
          <mxGeometry x="8" y="44" width="112" height="96" as="geometry" />
        </mxCell>
        <mxCell id="aJsMiYfcZLJs7_6X1HbY-15" value="" style="shape=tableRow;horizontal=0;startSize=0;swimlaneHead=0;swimlaneBody=0;strokeColor=inherit;top=0;left=0;bottom=0;right=0;collapsible=0;dropTarget=0;fillColor=none;points=[[0,0.5],[1,0.5]];portConstraint=eastwest;fontSize=16;" vertex="1" parent="aJsMiYfcZLJs7_6X1HbY-14">
          <mxGeometry y="30" width="112" height="22" as="geometry" />
        </mxCell>
        <mxCell id="aJsMiYfcZLJs7_6X1HbY-16" value="&lt;span style=&quot;font-size: 12px; text-align: left;&quot;&gt;Item 1&lt;/span&gt;" style="shape=partialRectangle;html=1;whiteSpace=wrap;connectable=0;strokeColor=inherit;overflow=hidden;fillColor=none;top=0;left=0;bottom=0;right=0;pointerEvents=1;fontSize=16;" vertex="1" parent="aJsMiYfcZLJs7_6X1HbY-15">
          <mxGeometry width="38" height="22" as="geometry">
            <mxRectangle width="38" height="22" as="alternateBounds" />
          </mxGeometry>
        </mxCell>
        <mxCell id="aJsMiYfcZLJs7_6X1HbY-17" value="&lt;span style=&quot;font-size: 12px; text-align: left;&quot;&gt;Item 2&lt;/span&gt;" style="shape=partialRectangle;html=1;whiteSpace=wrap;connectable=0;strokeColor=inherit;overflow=hidden;fillColor=none;top=0;left=0;bottom=0;right=0;pointerEvents=1;fontSize=16;" vertex="1" parent="aJsMiYfcZLJs7_6X1HbY-15">
          <mxGeometry x="38" width="36" height="22" as="geometry">
            <mxRectangle width="36" height="22" as="alternateBounds" />
          </mxGeometry>
        </mxCell>
        <mxCell id="aJsMiYfcZLJs7_6X1HbY-18" value="&lt;font style=&quot;font-size: 10px;&quot;&gt;Embed&lt;/font&gt;" style="shape=partialRectangle;html=1;whiteSpace=wrap;connectable=0;strokeColor=inherit;overflow=hidden;fillColor=none;top=0;left=0;bottom=0;right=0;pointerEvents=1;fontSize=16;" vertex="1" parent="aJsMiYfcZLJs7_6X1HbY-15">
          <mxGeometry x="74" width="38" height="22" as="geometry">
            <mxRectangle width="38" height="22" as="alternateBounds" />
          </mxGeometry>
        </mxCell>
        <mxCell id="aJsMiYfcZLJs7_6X1HbY-19" value="" style="shape=tableRow;horizontal=0;startSize=0;swimlaneHead=0;swimlaneBody=0;strokeColor=inherit;top=0;left=0;bottom=0;right=0;collapsible=0;dropTarget=0;fillColor=none;points=[[0,0.5],[1,0.5]];portConstraint=eastwest;fontSize=16;" vertex="1" parent="aJsMiYfcZLJs7_6X1HbY-14">
          <mxGeometry y="52" width="112" height="22" as="geometry" />
        </mxCell>
        <mxCell id="aJsMiYfcZLJs7_6X1HbY-20" value="&lt;span style=&quot;font-size: 12px; text-align: left;&quot;&gt;Item 1&lt;/span&gt;" style="shape=partialRectangle;html=1;whiteSpace=wrap;connectable=0;strokeColor=inherit;overflow=hidden;fillColor=none;top=0;left=0;bottom=0;right=0;pointerEvents=1;fontSize=16;" vertex="1" parent="aJsMiYfcZLJs7_6X1HbY-19">
          <mxGeometry width="38" height="22" as="geometry">
            <mxRectangle width="38" height="22" as="alternateBounds" />
          </mxGeometry>
        </mxCell>
        <mxCell id="aJsMiYfcZLJs7_6X1HbY-21" value="&lt;span style=&quot;font-size: 12px; text-align: left;&quot;&gt;Item 3&lt;/span&gt;" style="shape=partialRectangle;html=1;whiteSpace=wrap;connectable=0;strokeColor=inherit;overflow=hidden;fillColor=none;top=0;left=0;bottom=0;right=0;pointerEvents=1;fontSize=16;" vertex="1" parent="aJsMiYfcZLJs7_6X1HbY-19">
          <mxGeometry x="38" width="36" height="22" as="geometry">
            <mxRectangle width="36" height="22" as="alternateBounds" />
          </mxGeometry>
        </mxCell>
        <mxCell id="aJsMiYfcZLJs7_6X1HbY-22" value="&lt;font style=&quot;font-size: 10px;&quot;&gt;Contain&lt;/font&gt;" style="shape=partialRectangle;html=1;whiteSpace=wrap;connectable=0;strokeColor=inherit;overflow=hidden;fillColor=none;top=0;left=0;bottom=0;right=0;pointerEvents=1;fontSize=16;" vertex="1" parent="aJsMiYfcZLJs7_6X1HbY-19">
          <mxGeometry x="74" width="38" height="22" as="geometry">
            <mxRectangle width="38" height="22" as="alternateBounds" />
          </mxGeometry>
        </mxCell>
        <mxCell id="aJsMiYfcZLJs7_6X1HbY-23" value="" style="shape=tableRow;horizontal=0;startSize=0;swimlaneHead=0;swimlaneBody=0;strokeColor=inherit;top=0;left=0;bottom=0;right=0;collapsible=0;dropTarget=0;fillColor=none;points=[[0,0.5],[1,0.5]];portConstraint=eastwest;fontSize=16;" vertex="1" parent="aJsMiYfcZLJs7_6X1HbY-14">
          <mxGeometry y="74" width="112" height="22" as="geometry" />
        </mxCell>
        <mxCell id="aJsMiYfcZLJs7_6X1HbY-24" value="&lt;span style=&quot;font-size: 12px; text-align: left;&quot;&gt;Item 2&lt;/span&gt;" style="shape=partialRectangle;html=1;whiteSpace=wrap;connectable=0;strokeColor=inherit;overflow=hidden;fillColor=none;top=0;left=0;bottom=0;right=0;pointerEvents=1;fontSize=16;" vertex="1" parent="aJsMiYfcZLJs7_6X1HbY-23">
          <mxGeometry width="38" height="22" as="geometry">
            <mxRectangle width="38" height="22" as="alternateBounds" />
          </mxGeometry>
        </mxCell>
        <mxCell id="aJsMiYfcZLJs7_6X1HbY-25" value="&lt;span style=&quot;font-size: 12px; text-align: left;&quot;&gt;Item 3&lt;/span&gt;" style="shape=partialRectangle;html=1;whiteSpace=wrap;connectable=0;strokeColor=inherit;overflow=hidden;fillColor=none;top=0;left=0;bottom=0;right=0;pointerEvents=1;fontSize=16;" vertex="1" parent="aJsMiYfcZLJs7_6X1HbY-23">
          <mxGeometry x="38" width="36" height="22" as="geometry">
            <mxRectangle width="36" height="22" as="alternateBounds" />
          </mxGeometry>
        </mxCell>
        <mxCell id="aJsMiYfcZLJs7_6X1HbY-26" value="&lt;font style=&quot;font-size: 10px;&quot;&gt;Overlap&lt;/font&gt;" style="shape=partialRectangle;html=1;whiteSpace=wrap;connectable=0;strokeColor=inherit;overflow=hidden;fillColor=none;top=0;left=0;bottom=0;right=0;pointerEvents=1;fontSize=16;" vertex="1" parent="aJsMiYfcZLJs7_6X1HbY-23">
          <mxGeometry x="74" width="38" height="22" as="geometry">
            <mxRectangle width="38" height="22" as="alternateBounds" />
          </mxGeometry>
        </mxCell>
        <mxCell id="aJsMiYfcZLJs7_6X1HbY-27" value="Entity Dependency" style="shape=associativeEntity;whiteSpace=wrap;html=1;align=center;" vertex="1" parent="aJsMiYfcZLJs7_6X1HbY-11">
          <mxGeometry x="127" y="44" width="93" height="96" as="geometry" />
        </mxCell>
        <mxCell id="aJsMiYfcZLJs7_6X1HbY-28" value="Phase 3" style="swimlane;swimlaneHead=0;swimlaneBody=0;fontStyle=0;strokeColor=inherit;connectable=0;fillColor=none;startSize=40;collapsible=0;recursiveResize=0;expand=0;fontSize=16;" vertex="1" parent="aJsMiYfcZLJs7_6X1HbY-2">
          <mxGeometry x="487" width="223" height="183" as="geometry">
            <mxRectangle width="223" height="183" as="alternateBounds" />
          </mxGeometry>
        </mxCell>
        <mxCell id="aJsMiYfcZLJs7_6X1HbY-29" value="" style="verticalLabelPosition=bottom;shadow=0;dashed=0;align=center;html=1;verticalAlign=top;strokeWidth=1;shape=mxgraph.mockup.graphics.plotChart;strokeColor=none;strokeColor2=#aaaaaa;strokeColor3=#666666;fillColor2=#99aaff,#0022ff,#008cff;" vertex="1" parent="aJsMiYfcZLJs7_6X1HbY-28">
          <mxGeometry x="7.56" y="47" width="82.44" height="63" as="geometry" />
        </mxCell>
        <mxCell id="aJsMiYfcZLJs7_6X1HbY-30" value="" style="image;sketch=0;aspect=fixed;html=1;points=[];align=center;fontSize=12;image=img/lib/mscae/Analysis_Services.svg;" vertex="1" parent="aJsMiYfcZLJs7_6X1HbY-28">
          <mxGeometry x="130" y="50" width="74.82" height="58.36" as="geometry" />
        </mxCell>
        <mxCell id="aJsMiYfcZLJs7_6X1HbY-31" style="edgeStyle=orthogonalEdgeStyle;rounded=0;orthogonalLoop=1;jettySize=auto;html=1;exitX=0.494;exitY=1.003;exitDx=0;exitDy=0;exitPerimeter=0;" edge="1" parent="aJsMiYfcZLJs7_6X1HbY-28" source="aJsMiYfcZLJs7_6X1HbY-29" target="aJsMiYfcZLJs7_6X1HbY-30">
          <mxGeometry relative="1" as="geometry">
            <Array as="points">
              <mxPoint x="48" y="140" />
              <mxPoint x="110" y="140" />
              <mxPoint x="110" y="79" />
            </Array>
          </mxGeometry>
        </mxCell>
        <mxCell id="aJsMiYfcZLJs7_6X1HbY-32" value="建筑物模型空间语义数据指导物理工程" style="text;html=1;align=center;verticalAlign=middle;resizable=0;points=[];autosize=1;strokeColor=none;fillColor=none;" vertex="1" parent="aJsMiYfcZLJs7_6X1HbY-28">
          <mxGeometry x="-3.500000000000007" y="150" width="230" height="30" as="geometry" />
        </mxCell>
        <mxCell id="aJsMiYfcZLJs7_6X1HbY-33" value="Time" style="shape=tableRow;horizontal=0;swimlaneHead=0;swimlaneBody=0;top=0;left=0;strokeColor=inherit;bottom=0;right=0;dropTarget=0;fontStyle=0;fillColor=none;points=[[0,0.5],[1,0.5]];portConstraint=eastwest;startSize=40;collapsible=0;recursiveResize=0;expand=0;fontSize=16;" vertex="1" parent="aJsMiYfcZLJs7_6X1HbY-1">
          <mxGeometry y="223" width="710" height="158" as="geometry" />
        </mxCell>
        <mxCell id="aJsMiYfcZLJs7_6X1HbY-34" value="" style="swimlane;swimlaneHead=0;swimlaneBody=0;fontStyle=0;connectable=0;strokeColor=inherit;fillColor=none;startSize=0;collapsible=0;recursiveResize=0;expand=0;fontSize=16;" vertex="1" parent="aJsMiYfcZLJs7_6X1HbY-33">
          <mxGeometry x="40" width="223" height="158" as="geometry">
            <mxRectangle width="223" height="158" as="alternateBounds" />
          </mxGeometry>
        </mxCell>
        <mxCell id="aJsMiYfcZLJs7_6X1HbY-35" value="" style="sketch=0;pointerEvents=1;shadow=0;dashed=0;html=1;strokeColor=none;labelPosition=center;verticalLabelPosition=bottom;verticalAlign=top;align=center;fillColor=#505050;shape=mxgraph.mscae.oms.server_width_changes" vertex="1" parent="aJsMiYfcZLJs7_6X1HbY-34">
          <mxGeometry x="160" y="21" width="47" height="50" as="geometry" />
        </mxCell>
        <mxCell id="aJsMiYfcZLJs7_6X1HbY-36" value="Event (time-&#xa;based)" style="sketch=0;outlineConnect=0;fontColor=#232F3E;gradientColor=none;strokeColor=#232F3E;fillColor=#ffffff;dashed=0;verticalLabelPosition=bottom;verticalAlign=top;align=center;html=1;fontSize=12;fontStyle=0;aspect=fixed;shape=mxgraph.aws4.resourceIcon;resIcon=mxgraph.aws4.event_time_based;" vertex="1" parent="aJsMiYfcZLJs7_6X1HbY-34">
          <mxGeometry x="10" y="14" width="64" height="64" as="geometry" />
        </mxCell>
        <mxCell id="aJsMiYfcZLJs7_6X1HbY-37" style="edgeStyle=orthogonalEdgeStyle;rounded=0;orthogonalLoop=1;jettySize=auto;html=1;entryX=0;entryY=0.5;entryDx=0;entryDy=0;entryPerimeter=0;" edge="1" parent="aJsMiYfcZLJs7_6X1HbY-34" source="aJsMiYfcZLJs7_6X1HbY-36" target="aJsMiYfcZLJs7_6X1HbY-35">
          <mxGeometry relative="1" as="geometry" />
        </mxCell>
        <mxCell id="aJsMiYfcZLJs7_6X1HbY-38" value="BIM时间序列数据" style="edgeLabel;html=1;align=center;verticalAlign=middle;resizable=0;points=[];" vertex="1" connectable="0" parent="aJsMiYfcZLJs7_6X1HbY-37">
          <mxGeometry x="-0.1549" relative="1" as="geometry">
            <mxPoint x="4" y="11" as="offset" />
          </mxGeometry>
        </mxCell>
        <mxCell id="aJsMiYfcZLJs7_6X1HbY-39" value="提取BIM中的时间维度数据" style="text;html=1;align=center;verticalAlign=middle;resizable=0;points=[];autosize=1;strokeColor=none;fillColor=none;" vertex="1" parent="aJsMiYfcZLJs7_6X1HbY-34">
          <mxGeometry x="31.5" y="117" width="160" height="30" as="geometry" />
        </mxCell>
        <mxCell id="aJsMiYfcZLJs7_6X1HbY-40" value="" style="swimlane;swimlaneHead=0;swimlaneBody=0;fontStyle=0;connectable=0;strokeColor=inherit;fillColor=none;startSize=0;collapsible=0;recursiveResize=0;expand=0;fontSize=16;" vertex="1" parent="aJsMiYfcZLJs7_6X1HbY-33">
          <mxGeometry x="263" width="224" height="158" as="geometry">
            <mxRectangle width="224" height="158" as="alternateBounds" />
          </mxGeometry>
        </mxCell>
        <mxCell id="aJsMiYfcZLJs7_6X1HbY-41" value="" style="sketch=0;html=1;verticalAlign=top;labelPosition=center;verticalLabelPosition=bottom;align=center;spacingTop=-6;fontSize=11;fontStyle=1;fontColor=#999999;shape=image;aspect=fixed;imageAspect=0;image=data:image/svg+xml,PHN2ZyB4bWxucz0iaHR0cDovL3d3dy53My5vcmcvMjAwMC9zdmciIHhtbG5zOnY9Imh0dHBzOi8vdmVjdGEuaW8vbmFubyIgd2lkdGg9IjE2Ljk3OTk5OTU0MjIzNjMyOCIgaGVpZ2h0PSIyMCIgdmlld0JveD0iMCAwIDE2Ljk3OTk5OTU0MjIzNjMyOCAyMCI+JiN4YTsJPHN0eWxlIHR5cGU9InRleHQvY3NzIj4mI3hhOwkuc3Qwe2ZpbGw6IzY2OWRmNjt9JiN4YTsJLnN0MXtmaWxsOiM0Mjg1ZjQ7fSYjeGE7CS5zdDJ7ZmlsbDojYWVjYmZhO30mI3hhOwk8L3N0eWxlPiYjeGE7CTxnIGNsYXNzPSJzdDAiPiYjeGE7CQk8cGF0aCBkPSJNOC40OSAxMC4yOUwuMjQgNS4zNSA4LjQ5LjU4bDguMjQgNC42N3pNMS43NiA1LjM2bDYuNzIgNCA2LjcyLTQuMTEtNi43MS0zLjc4eiIvPiYjeGE7CQk8cGF0aCBkPSJNOC40OSAxOS40NEwuMjEgMTMuODkgOC40OSA5LjNsOC4xNSA0LjY0em0tNi44LTUuNWw2LjggNC41NiA2LjctNC41LTYuNy0zLjgyeiIvPiYjeGE7CTwvZz4mI3hhOwk8ZyBjbGFzcz0ic3QxIj4mI3hhOwkJPHBhdGggZD0iTS42MTMgNS41MDJsLjY3NS0uMzcxIDcuNDc3IDEzLjYtLjY3NS4zNzF6Ii8+JiN4YTsJCTxwYXRoIGQ9Ik04LjE5NCAxOC44MjZsNy4zMDEtMTMuNTU5LjY3OC4zNjUtNy4zMDEgMTMuNTU5ek0uNzE2IDEzLjY4N0w4LjA5Ni45MDRsLjY2Ny4zODUtNy4zOCAxMi43ODN6Ii8+JiN4YTsJCTxwYXRoIGQ9Ik04LjE5NCAxLjIxNGwuNjY5LS4zODEgNy40MDUgMTIuOTg3LS42NjkuMzgxeiIvPiYjeGE7CQk8cGF0aCBkPSJNOC4xMy45NmguNzdWMTguOWgtLjc3ek0uNTUgNS40M2guNzd2OC42NkguNTV6bTE0Ljk3LS4wOWguNzdWMTRoLS43N3oiLz4mI3hhOwk8L2c+JiN4YTsJPGcgY2xhc3M9InN0MiI+JiN4YTsJCTxjaXJjbGUgY3g9IjguNTIiIGN5PSIxLjA3IiByPSIxLjA3Ii8+JiN4YTsJCTxjaXJjbGUgY3g9IjE1LjkxIiBjeT0iNS4zNCIgcj0iMS4wNyIvPiYjeGE7CQk8Y2lyY2xlIGN4PSIxLjA3IiBjeT0iNS4zNCIgcj0iMS4wNyIvPiYjeGE7CQk8Y2lyY2xlIGN4PSI4LjUyIiBjeT0iOS45MyIgcj0iMS42OCIvPiYjeGE7CQk8Y2lyY2xlIGN4PSIxNS45MSIgY3k9IjEzLjk0IiByPSIxLjA3Ii8+JiN4YTsJCTxjaXJjbGUgY3g9IjEuMDciIGN5PSIxMy45NCIgcj0iMS4wNyIvPiYjeGE7CQk8Y2lyY2xlIGN4PSI4LjUyIiBjeT0iMTguOTMiIHI9IjEuMDciLz4mI3hhOwkJPHBhdGggZD0iTTguNDkgMTAuMjlMLjI0IDUuMzUgOC40OS41OGw4LjI0IDQuNjd6TTEuNzYgNS4zNmw2LjcyIDQgNi43Mi00LjExLTYuNzEtMy43OHoiLz4mI3hhOwkJPHBhdGggZD0iTTguNDkgMTkuNDRMLjIxIDEzLjg5IDguNDkgOS4zbDguMTUgNC42NHptLTYuOC01LjVsNi44IDQuNTYgNi43LTQuNS02LjctMy44MnoiLz4mI3hhOwkJPHBhdGggZD0iTS42MTMgNS41MDJsLjY3NS0uMzcxIDcuNDc3IDEzLjYtLjY3NS4zNzF6Ii8+JiN4YTsJCTxwYXRoIGQ9Ik04LjE5NCAxOC44MjZsNy4zMDEtMTMuNTU5LjY3OC4zNjUtNy4zMDEgMTMuNTU5ek0uNzE2IDEzLjY4N0w4LjA5Ni45MDRsLjY2Ny4zODUtNy4zOCAxMi43ODN6Ii8+JiN4YTsJCTxwYXRoIGQ9Ik04LjE5NCAxLjIxNGwuNjY5LS4zODEgNy40MDUgMTIuOTg3LS42NjkuMzgxeiIvPiYjeGE7CQk8cGF0aCBkPSJNOC4xMy45NmguNzdWMTguOWgtLjc3ek0uNTUgNS40M2guNzd2OC42NkguNTV6bTE0Ljk3LS4wOWguNzdWMTRoLS43N3oiLz4mI3hhOwk8L2c+JiN4YTsJPGcgY2xhc3M9InN0MCI+JiN4YTsJCTxjaXJjbGUgY3g9IjguNTIiIGN5PSIxLjA3IiByPSIxLjA3Ii8+JiN4YTsJCTxjaXJjbGUgY3g9IjE1LjkxIiBjeT0iNS4zNCIgcj0iMS4wNyIvPiYjeGE7CQk8Y2lyY2xlIGN4PSIxLjA3IiBjeT0iNS4zNCIgcj0iMS4wNyIvPiYjeGE7CQk8Y2lyY2xlIGN4PSI4LjUyIiBjeT0iOS45MyIgcj0iMS42OCIvPiYjeGE7CQk8Y2lyY2xlIGN4PSIxNS45MSIgY3k9IjEzLjk0IiByPSIxLjA3Ii8+JiN4YTsJCTxjaXJjbGUgY3g9IjEuMDciIGN5PSIxMy45NCIgcj0iMS4wNyIvPiYjeGE7CQk8Y2lyY2xlIGN4PSI4LjUyIiBjeT0iMTguOTMiIHI9IjEuMDciLz4mI3hhOwk8L2c+JiN4YTs8L3N2Zz4=;imageBackground=none;" vertex="1" parent="aJsMiYfcZLJs7_6X1HbY-40">
          <mxGeometry x="177" y="91" width="36" height="42" as="geometry" />
        </mxCell>
        <mxCell id="aJsMiYfcZLJs7_6X1HbY-42" style="edgeStyle=orthogonalEdgeStyle;rounded=0;orthogonalLoop=1;jettySize=auto;html=1;entryX=0;entryY=0.5;entryDx=0;entryDy=0;" edge="1" parent="aJsMiYfcZLJs7_6X1HbY-40" source="aJsMiYfcZLJs7_6X1HbY-44" target="aJsMiYfcZLJs7_6X1HbY-41">
          <mxGeometry relative="1" as="geometry" />
        </mxCell>
        <mxCell id="aJsMiYfcZLJs7_6X1HbY-43" value="建筑物生命周期映射" style="edgeLabel;html=1;align=center;verticalAlign=middle;resizable=0;points=[];" vertex="1" connectable="0" parent="aJsMiYfcZLJs7_6X1HbY-42">
          <mxGeometry x="-0.3294" y="2" relative="1" as="geometry">
            <mxPoint x="20" y="-19" as="offset" />
          </mxGeometry>
        </mxCell>
        <mxCell id="aJsMiYfcZLJs7_6X1HbY-44" value="" style="sketch=0;html=1;aspect=fixed;strokeColor=none;shadow=0;fillColor=#3B8DF1;verticalAlign=top;labelPosition=center;verticalLabelPosition=bottom;shape=mxgraph.gcp2.replication_controller_3" vertex="1" parent="aJsMiYfcZLJs7_6X1HbY-40">
          <mxGeometry x="17" y="94" width="54.55" height="36" as="geometry" />
        </mxCell>
        <mxCell id="aJsMiYfcZLJs7_6X1HbY-45" value="" style="shape=image;html=1;verticalAlign=top;verticalLabelPosition=bottom;labelBackgroundColor=#ffffff;imageAspect=0;aspect=fixed;image=https://cdn0.iconfinder.com/data/icons/simple-lines-filled/32/16_Backup_Arrow_Clock_Data_Save_Safe_Refresh-128.png" vertex="1" parent="aJsMiYfcZLJs7_6X1HbY-40">
          <mxGeometry x="88.5" y="27" width="47" height="47" as="geometry" />
        </mxCell>
        <mxCell id="aJsMiYfcZLJs7_6X1HbY-46" style="edgeStyle=orthogonalEdgeStyle;rounded=0;orthogonalLoop=1;jettySize=auto;html=1;entryX=0.245;entryY=-0.047;entryDx=0;entryDy=0;entryPerimeter=0;" edge="1" parent="aJsMiYfcZLJs7_6X1HbY-40" source="aJsMiYfcZLJs7_6X1HbY-45" target="aJsMiYfcZLJs7_6X1HbY-44">
          <mxGeometry relative="1" as="geometry">
            <mxPoint x="37" y="87" as="targetPoint" />
          </mxGeometry>
        </mxCell>
        <mxCell id="aJsMiYfcZLJs7_6X1HbY-47" value="时间数据分析" style="edgeLabel;html=1;align=center;verticalAlign=middle;resizable=0;points=[];" vertex="1" connectable="0" parent="aJsMiYfcZLJs7_6X1HbY-46">
          <mxGeometry x="0.1797" y="-1" relative="1" as="geometry">
            <mxPoint x="9" y="-14" as="offset" />
          </mxGeometry>
        </mxCell>
        <mxCell id="aJsMiYfcZLJs7_6X1HbY-48" value="" style="swimlane;swimlaneHead=0;swimlaneBody=0;fontStyle=0;connectable=0;strokeColor=inherit;fillColor=none;startSize=0;collapsible=0;recursiveResize=0;expand=0;fontSize=16;" vertex="1" parent="aJsMiYfcZLJs7_6X1HbY-33">
          <mxGeometry x="487" width="223" height="158" as="geometry">
            <mxRectangle width="223" height="158" as="alternateBounds" />
          </mxGeometry>
        </mxCell>
        <mxCell id="aJsMiYfcZLJs7_6X1HbY-49" value="" style="verticalLabelPosition=bottom;shadow=0;dashed=0;align=center;html=1;verticalAlign=top;strokeWidth=1;shape=mxgraph.mockup.graphics.gauge;fillColor=#ffffff;strokeColor=#999999;gaugePos=25;scaleColors=#bbddff,#ddeeff,#99ccff;gaugeLabels=,,;needleColor=#008cff;" vertex="1" parent="aJsMiYfcZLJs7_6X1HbY-48">
          <mxGeometry x="18.56" y="17" width="59" height="53" as="geometry" />
        </mxCell>
        <mxCell id="aJsMiYfcZLJs7_6X1HbY-50" value="time" style="strokeWidth=1;shadow=0;dashed=0;align=center;html=1;shape=mxgraph.mockup.graphics.anchor;fontColor=#666666;" vertex="1" parent="aJsMiYfcZLJs7_6X1HbY-49">
          <mxGeometry x="14.75" y="10.6" width="29.5" height="10.6" as="geometry" />
        </mxCell>
        <mxCell id="aJsMiYfcZLJs7_6X1HbY-51" value="start" style="strokeWidth=1;shadow=0;dashed=0;align=center;html=1;shape=mxgraph.mockup.graphics.anchor;align=left;fontColor=#666666;" vertex="1" parent="aJsMiYfcZLJs7_6X1HbY-48">
          <mxGeometry x="7.559999999999998" y="70" width="34.5" height="13.200000000000001" as="geometry" />
        </mxCell>
        <mxCell id="aJsMiYfcZLJs7_6X1HbY-52" value="end" style="strokeWidth=1;shadow=0;dashed=0;align=center;html=1;shape=mxgraph.mockup.graphics.anchor;align=right;fontColor=#666666;" vertex="1" parent="aJsMiYfcZLJs7_6X1HbY-48">
          <mxGeometry x="50.56" y="70" width="34.5" height="13.200000000000001" as="geometry" />
        </mxCell>
        <mxCell id="aJsMiYfcZLJs7_6X1HbY-53" value="" style="verticalLabelPosition=bottom;shadow=0;dashed=0;align=center;html=1;verticalAlign=top;strokeWidth=1;shape=mxgraph.mockup.graphics.columnChart;strokeColor=none;strokeColor2=none;strokeColor3=#666666;fillColor2=#008cff;fillColor3=#dddddd;" vertex="1" parent="aJsMiYfcZLJs7_6X1HbY-48">
          <mxGeometry x="103" y="17" width="113" height="76.4" as="geometry" />
        </mxCell>
        <mxCell id="aJsMiYfcZLJs7_6X1HbY-54" value="" style="outlineConnect=0;dashed=0;verticalLabelPosition=bottom;verticalAlign=top;align=center;html=1;shape=mxgraph.aws3.server_migration_service;fillColor=#5294CF;gradientColor=none;" vertex="1" parent="aJsMiYfcZLJs7_6X1HbY-48">
          <mxGeometry x="23.810000000000002" y="105" width="48.5" height="47" as="geometry" />
        </mxCell>
        <mxCell id="aJsMiYfcZLJs7_6X1HbY-55" style="edgeStyle=orthogonalEdgeStyle;rounded=0;orthogonalLoop=1;jettySize=auto;html=1;entryX=0.5;entryY=0;entryDx=0;entryDy=0;entryPerimeter=0;" edge="1" parent="aJsMiYfcZLJs7_6X1HbY-48" source="aJsMiYfcZLJs7_6X1HbY-49" target="aJsMiYfcZLJs7_6X1HbY-54">
          <mxGeometry relative="1" as="geometry" />
        </mxCell>
        <mxCell id="aJsMiYfcZLJs7_6X1HbY-56" style="edgeStyle=orthogonalEdgeStyle;rounded=0;orthogonalLoop=1;jettySize=auto;html=1;entryX=0.469;entryY=1.077;entryDx=0;entryDy=0;entryPerimeter=0;" edge="1" parent="aJsMiYfcZLJs7_6X1HbY-48" source="aJsMiYfcZLJs7_6X1HbY-54" target="aJsMiYfcZLJs7_6X1HbY-53">
          <mxGeometry relative="1" as="geometry" />
        </mxCell>
        <mxCell id="aJsMiYfcZLJs7_6X1HbY-57" value="时间语义数据管理建筑周期" style="edgeLabel;html=1;align=center;verticalAlign=middle;resizable=0;points=[];" vertex="1" connectable="0" parent="aJsMiYfcZLJs7_6X1HbY-56">
          <mxGeometry x="0.0484" y="-1" relative="1" as="geometry">
            <mxPoint x="16" y="8" as="offset" />
          </mxGeometry>
        </mxCell>
        <mxCell id="aJsMiYfcZLJs7_6X1HbY-58" value="Spatio-temporal" style="shape=tableRow;horizontal=0;swimlaneHead=0;swimlaneBody=0;top=0;left=0;strokeColor=inherit;bottom=0;right=0;dropTarget=0;fontStyle=0;fillColor=none;points=[[0,0.5],[1,0.5]];portConstraint=eastwest;startSize=40;collapsible=0;recursiveResize=0;expand=0;fontSize=16;" vertex="1" parent="aJsMiYfcZLJs7_6X1HbY-1">
          <mxGeometry y="381" width="710" height="159" as="geometry" />
        </mxCell>
        <mxCell id="aJsMiYfcZLJs7_6X1HbY-59" value="" style="swimlane;swimlaneHead=0;swimlaneBody=0;fontStyle=0;connectable=0;strokeColor=inherit;fillColor=none;startSize=0;collapsible=0;recursiveResize=0;expand=0;fontSize=16;" vertex="1" parent="aJsMiYfcZLJs7_6X1HbY-58">
          <mxGeometry x="40" width="223" height="159" as="geometry">
            <mxRectangle width="223" height="159" as="alternateBounds" />
          </mxGeometry>
        </mxCell>
        <mxCell id="aJsMiYfcZLJs7_6X1HbY-60" style="edgeStyle=orthogonalEdgeStyle;rounded=0;orthogonalLoop=1;jettySize=auto;html=1;" edge="1" parent="aJsMiYfcZLJs7_6X1HbY-59" source="aJsMiYfcZLJs7_6X1HbY-61" target="aJsMiYfcZLJs7_6X1HbY-64">
          <mxGeometry relative="1" as="geometry">
            <Array as="points">
              <mxPoint x="53" y="109" />
            </Array>
          </mxGeometry>
        </mxCell>
        <mxCell id="aJsMiYfcZLJs7_6X1HbY-61" value="" style="verticalLabelPosition=bottom;shadow=0;dashed=0;align=center;html=1;verticalAlign=top;strokeWidth=1;shape=mxgraph.mockup.graphics.plotChart;strokeColor=none;strokeColor2=#aaaaaa;strokeColor3=#666666;fillColor2=#99aaff,#0022ff,#008cff;" vertex="1" parent="aJsMiYfcZLJs7_6X1HbY-59">
          <mxGeometry x="20" y="8.999999999999998" width="66" height="58" as="geometry" />
        </mxCell>
        <mxCell id="aJsMiYfcZLJs7_6X1HbY-62" style="edgeStyle=orthogonalEdgeStyle;rounded=0;orthogonalLoop=1;jettySize=auto;html=1;" edge="1" parent="aJsMiYfcZLJs7_6X1HbY-59" source="aJsMiYfcZLJs7_6X1HbY-63" target="aJsMiYfcZLJs7_6X1HbY-64">
          <mxGeometry relative="1" as="geometry">
            <mxPoint x="150" y="109" as="targetPoint" />
            <Array as="points">
              <mxPoint x="170" y="109" />
            </Array>
          </mxGeometry>
        </mxCell>
        <mxCell id="aJsMiYfcZLJs7_6X1HbY-63" value="" style="verticalLabelPosition=bottom;shadow=0;dashed=0;align=center;html=1;verticalAlign=top;strokeWidth=1;shape=mxgraph.mockup.graphics.columnChart;strokeColor=none;strokeColor2=none;strokeColor3=#666666;fillColor2=#008cff;fillColor3=#dddddd;" vertex="1" parent="aJsMiYfcZLJs7_6X1HbY-59">
          <mxGeometry x="137" y="8.999999999999998" width="66" height="58" as="geometry" />
        </mxCell>
        <mxCell id="aJsMiYfcZLJs7_6X1HbY-64" value="" style="sketch=0;outlineConnect=0;fontColor=#232F3E;gradientColor=none;fillColor=#7AA116;strokeColor=none;dashed=0;verticalLabelPosition=bottom;verticalAlign=top;align=center;html=1;fontSize=12;fontStyle=0;aspect=fixed;pointerEvents=1;shape=mxgraph.aws4.alexa_skill;" vertex="1" parent="aJsMiYfcZLJs7_6X1HbY-59">
          <mxGeometry x="86" y="79" width="51" height="51" as="geometry" />
        </mxCell>
        <mxCell id="aJsMiYfcZLJs7_6X1HbY-65" value="BIM时空语义结合" style="text;html=1;align=center;verticalAlign=middle;resizable=0;points=[];autosize=1;strokeColor=none;fillColor=none;" vertex="1" parent="aJsMiYfcZLJs7_6X1HbY-59">
          <mxGeometry x="54" y="129" width="120" height="30" as="geometry" />
        </mxCell>
        <mxCell id="aJsMiYfcZLJs7_6X1HbY-66" value="" style="swimlane;swimlaneHead=0;swimlaneBody=0;fontStyle=0;connectable=0;strokeColor=inherit;fillColor=none;startSize=0;collapsible=0;recursiveResize=0;expand=0;fontSize=16;" vertex="1" parent="aJsMiYfcZLJs7_6X1HbY-58">
          <mxGeometry x="263" width="224" height="159" as="geometry">
            <mxRectangle width="224" height="159" as="alternateBounds" />
          </mxGeometry>
        </mxCell>
        <mxCell id="aJsMiYfcZLJs7_6X1HbY-67" style="edgeStyle=orthogonalEdgeStyle;rounded=0;orthogonalLoop=1;jettySize=auto;html=1;" edge="1" parent="aJsMiYfcZLJs7_6X1HbY-66" source="aJsMiYfcZLJs7_6X1HbY-68" target="aJsMiYfcZLJs7_6X1HbY-70">
          <mxGeometry relative="1" as="geometry">
            <Array as="points">
              <mxPoint x="117" y="69" />
              <mxPoint x="117" y="69" />
            </Array>
          </mxGeometry>
        </mxCell>
        <mxCell id="aJsMiYfcZLJs7_6X1HbY-68" value="建筑工程" style="outlineConnect=0;dashed=0;verticalLabelPosition=bottom;verticalAlign=top;align=center;html=1;shape=mxgraph.aws3.aws_iot;fillColor=#5294CF;gradientColor=none;" vertex="1" parent="aJsMiYfcZLJs7_6X1HbY-66">
          <mxGeometry x="17" y="16.36" width="68" height="68" as="geometry" />
        </mxCell>
        <mxCell id="aJsMiYfcZLJs7_6X1HbY-69" style="edgeStyle=orthogonalEdgeStyle;rounded=0;orthogonalLoop=1;jettySize=auto;html=1;" edge="1" parent="aJsMiYfcZLJs7_6X1HbY-66" source="aJsMiYfcZLJs7_6X1HbY-70" target="aJsMiYfcZLJs7_6X1HbY-68">
          <mxGeometry relative="1" as="geometry">
            <Array as="points">
              <mxPoint x="117" y="39" />
              <mxPoint x="117" y="39" />
            </Array>
          </mxGeometry>
        </mxCell>
        <mxCell id="aJsMiYfcZLJs7_6X1HbY-70" value="时空语义表征" style="sketch=0;outlineConnect=0;fontColor=#232F3E;gradientColor=none;fillColor=#7AA116;strokeColor=none;dashed=0;verticalLabelPosition=bottom;verticalAlign=top;align=center;html=1;fontSize=12;fontStyle=0;aspect=fixed;pointerEvents=1;shape=mxgraph.aws4.alexa_skill;" vertex="1" parent="aJsMiYfcZLJs7_6X1HbY-66">
          <mxGeometry x="146.99999999999994" y="16.359999999999992" width="68" height="68" as="geometry" />
        </mxCell>
        <mxCell id="aJsMiYfcZLJs7_6X1HbY-71" value="建筑工程四个阶段时空语义信息数据对齐" style="text;html=1;align=center;verticalAlign=middle;resizable=0;points=[];autosize=1;strokeColor=none;fillColor=none;" vertex="1" parent="aJsMiYfcZLJs7_6X1HbY-66">
          <mxGeometry x="-8" y="119" width="240" height="30" as="geometry" />
        </mxCell>
        <mxCell id="aJsMiYfcZLJs7_6X1HbY-72" value="" style="swimlane;swimlaneHead=0;swimlaneBody=0;fontStyle=0;connectable=0;strokeColor=inherit;fillColor=none;startSize=0;collapsible=0;recursiveResize=0;expand=0;fontSize=16;" vertex="1" parent="aJsMiYfcZLJs7_6X1HbY-58">
          <mxGeometry x="487" width="223" height="159" as="geometry">
            <mxRectangle width="223" height="159" as="alternateBounds" />
          </mxGeometry>
        </mxCell>
        <mxCell id="aJsMiYfcZLJs7_6X1HbY-73" value="数字模型" style="shadow=0;dashed=0;html=1;strokeColor=none;fillColor=#4495D1;labelPosition=center;verticalLabelPosition=top;verticalAlign=bottom;align=center;outlineConnect=0;shape=mxgraph.veeam.building;" vertex="1" parent="aJsMiYfcZLJs7_6X1HbY-72">
          <mxGeometry x="8.389999999999958" y="25.999999999999943" width="68" height="68" as="geometry" />
        </mxCell>
        <mxCell id="aJsMiYfcZLJs7_6X1HbY-74" value="物理模型" style="image;points=[];aspect=fixed;html=1;align=center;shadow=0;dashed=0;image=img/lib/allied_telesis/buildings/Large_Building.svg;labelPosition=center;verticalLabelPosition=top;verticalAlign=bottom;" vertex="1" parent="aJsMiYfcZLJs7_6X1HbY-72">
          <mxGeometry x="142.71000000000004" y="26" width="68" height="68" as="geometry" />
        </mxCell>
        <mxCell id="aJsMiYfcZLJs7_6X1HbY-75" value="" style="image;aspect=fixed;html=1;points=[];align=center;fontSize=12;image=img/lib/azure2/integration/SendGrid_Accounts.svg;" vertex="1" parent="aJsMiYfcZLJs7_6X1HbY-72">
          <mxGeometry x="83.63999999999999" y="84" width="48.14" height="49" as="geometry" />
        </mxCell>
        <mxCell id="aJsMiYfcZLJs7_6X1HbY-76" style="edgeStyle=orthogonalEdgeStyle;rounded=0;orthogonalLoop=1;jettySize=auto;html=1;entryX=0.018;entryY=0.582;entryDx=0;entryDy=0;entryPerimeter=0;strokeColor=#3399FF;" edge="1" parent="aJsMiYfcZLJs7_6X1HbY-72" source="aJsMiYfcZLJs7_6X1HbY-73" target="aJsMiYfcZLJs7_6X1HbY-75">
          <mxGeometry relative="1" as="geometry">
            <Array as="points">
              <mxPoint x="42.710000000000036" y="113" />
              <mxPoint x="63.710000000000036" y="113" />
            </Array>
          </mxGeometry>
        </mxCell>
        <mxCell id="aJsMiYfcZLJs7_6X1HbY-77" style="edgeStyle=orthogonalEdgeStyle;rounded=0;orthogonalLoop=1;jettySize=auto;html=1;strokeColor=#3399ff;" edge="1" parent="aJsMiYfcZLJs7_6X1HbY-72" source="aJsMiYfcZLJs7_6X1HbY-75" target="aJsMiYfcZLJs7_6X1HbY-74">
          <mxGeometry relative="1" as="geometry">
            <Array as="points">
              <mxPoint x="112.71000000000004" y="45" />
            </Array>
          </mxGeometry>
        </mxCell>
        <mxCell id="aJsMiYfcZLJs7_6X1HbY-78" style="edgeStyle=orthogonalEdgeStyle;rounded=0;orthogonalLoop=1;jettySize=auto;html=1;entryX=0.954;entryY=0.563;entryDx=0;entryDy=0;entryPerimeter=0;" edge="1" parent="aJsMiYfcZLJs7_6X1HbY-72" source="aJsMiYfcZLJs7_6X1HbY-74" target="aJsMiYfcZLJs7_6X1HbY-75">
          <mxGeometry relative="1" as="geometry">
            <Array as="points">
              <mxPoint x="182.71000000000004" y="112" />
              <mxPoint x="151.71000000000004" y="112" />
            </Array>
          </mxGeometry>
        </mxCell>
        <mxCell id="aJsMiYfcZLJs7_6X1HbY-79" style="edgeStyle=orthogonalEdgeStyle;rounded=0;orthogonalLoop=1;jettySize=auto;html=1;" edge="1" parent="aJsMiYfcZLJs7_6X1HbY-72" source="aJsMiYfcZLJs7_6X1HbY-75" target="aJsMiYfcZLJs7_6X1HbY-73">
          <mxGeometry relative="1" as="geometry">
            <Array as="points">
              <mxPoint x="96.71000000000004" y="46" />
            </Array>
          </mxGeometry>
        </mxCell>
        <mxCell id="aJsMiYfcZLJs7_6X1HbY-80" value="时空语义信息辅助建筑物模型数据匹配" style="text;html=1;align=center;verticalAlign=middle;resizable=0;points=[];autosize=1;strokeColor=none;fillColor=none;" vertex="1" parent="aJsMiYfcZLJs7_6X1HbY-72">
          <mxGeometry y="129" width="230" height="30" as="geometry" />
        </mxCell>
      </root>
    </mxGraphModel>
  </diagram>
</mxfile>
